<?xml version="1.0" encoding="UTF-8"?>
<svg version="1.1" xmlns="http://www.w3.org/2000/svg" width="335" height="372">
<path d="M0 0 C110.55 0 221.1 0 335 0 C335 122.76 335 245.52 335 372 C224.45 372 113.9 372 0 372 C0 249.24 0 126.48 0 0 Z " fill="#FEFEFE" transform="translate(0,0)"/>
<path d="M0 0 C1.57114479 -0.0059915 3.14228664 -0.01279847 4.71342468 -0.02035522 C8.96350273 -0.0379573 13.21350015 -0.0427081 17.46361113 -0.0439868 C20.12312493 -0.04541203 22.78261847 -0.04968862 25.44212723 -0.05498123 C34.73210188 -0.07346103 44.02201929 -0.08165425 53.31201172 -0.08007812 C61.95306635 -0.07887668 70.59387124 -0.09998482 79.23486269 -0.13156545 C86.67037479 -0.15776593 94.10580548 -0.16844387 101.54136336 -0.16716731 C105.97495485 -0.16665886 110.40832411 -0.17227697 114.84186935 -0.19352341 C119.01332833 -0.21297006 123.18435448 -0.21298673 127.35582924 -0.19849014 C128.88034642 -0.19640902 130.40489116 -0.20106117 131.92936134 -0.21321106 C141.52278528 -0.28467467 149.72663153 0.36003901 157.84619141 5.91552734 C163.22070788 13.77058989 164.05232129 21.58548245 163.97290039 30.89013672 C163.98100487 32.72164276 163.98100487 32.72164276 163.98927307 34.59014893 C163.99957831 37.91333981 163.99212258 41.23552134 163.97556186 44.55862236 C163.96158855 48.06288821 163.96818622 51.56712738 163.97169495 55.07141113 C163.97439032 60.9622426 163.96098958 66.85286959 163.93774414 72.74365234 C163.9112376 79.50665736 163.9093582 86.26931864 163.9211325 93.03235769 C163.93200856 99.5858906 163.92564074 106.13930194 163.91157722 112.69282532 C163.90589176 115.45790053 163.90584046 118.22288456 163.91064262 120.98796082 C163.95198615 153.19364933 159.40719182 179.40941576 137.47119141 204.29052734 C136.23341465 200.57719709 136.88422941 198.86703462 137.84619141 195.10302734 C143.38307096 173.29186164 141.169047 151.60230513 129.66894531 132.13183594 C126.2693115 126.90557458 121.94479279 122.59448374 117.47119141 118.29052734 C116.65650391 117.47970703 115.84181641 116.66888672 115.00244141 115.83349609 C91.61869054 93.55060363 54.89579449 81.61931793 22.98925781 81.87060547 C9.9026728 82.32336822 -1.42617762 86.32054235 -12.52880859 93.29052734 C-13.58068359 93.94794922 -13.58068359 93.94794922 -14.65380859 94.61865234 C-20.09890479 98.38484388 -24.62386767 103.24658343 -29.22607422 107.97265625 C-30.6443867 109.42764923 -32.08463564 110.86119905 -33.52880859 112.29052734 C-33.85880859 112.29052734 -34.18880859 112.29052734 -34.52880859 112.29052734 C-34.59836969 99.89461304 -34.65165104 87.4987453 -34.68424511 75.10267544 C-34.69988993 69.34645625 -34.72110684 63.59037076 -34.75512695 57.83422852 C-34.78776224 52.27751924 -34.80567052 46.72093844 -34.81344032 41.1641407 C-34.81897631 39.04588868 -34.82978675 36.92764355 -34.84599876 34.80944633 C-34.86782817 31.83871225 -34.87077318 28.86850668 -34.86938477 25.89770508 C-34.88017059 25.02520111 -34.89095642 24.15269714 -34.90206909 23.25375366 C-34.87031979 16.96099482 -33.87456155 12.14600045 -29.76708984 7.14599609 C-29.13158203 6.59556641 -28.49607422 6.04513672 -27.84130859 5.47802734 C-27.21869141 4.91470703 -26.59607422 4.35138672 -25.95458984 3.77099609 C-18.19081006 -0.96728497 -8.76228234 -0.00667825 0 0 Z " fill="#FC5002" transform="translate(103.52880859375,67.70947265625)"/>
<path d="M0 0 C5.5234344 3.26003717 9.34971443 7.9241433 11.375 14 C12.97380889 31.50826785 6.22760017 50.09185446 -4.125 64.1875 C-9.82181507 70.8683104 -15.80331003 75.16840351 -24.67578125 76.25 C-34.68805435 76.81908124 -44.00622864 72.20788777 -51.625 66 C-57.23477552 60.67255454 -60.62181496 54.89416598 -61.3125 47.0625 C-60.84850474 32.35586762 -48.40481417 17.27659891 -38.25 7.5625 C-27.15404777 -1.55825654 -13.79021191 -6.08513869 0 0 Z " fill="#040404" transform="translate(135.625,178)"/>
<path d="M0 0 C8.09282284 2.95175638 13.89302523 8.92926967 18.31640625 16.1484375 C24.52458214 29.51656538 22.27230053 50.53119478 18 64.19921875 C15.06839531 72.0393326 11.22947048 78.30790691 3.4375 81.9375 C-6.1513561 84.88079753 -15.97270484 83.54646366 -25.01953125 79.6015625 C-32.8398876 75.39927403 -37.9050718 70.14099906 -41.1875 61.84375 C-43.95960797 52.14137209 -41.17074265 43.28574634 -38 34 C-37.78569336 33.36980957 -37.57138672 32.73961914 -37.35058594 32.09033203 C-30.99590327 13.80790074 -21.10295306 -2.30498851 0 0 Z " fill="#040404" transform="translate(197,203)"/>
<path d="M0 0 C0.93423645 3.01031744 1.04449911 3.86650268 0 7 C0.67804688 6.7834375 1.35609375 6.566875 2.0546875 6.34375 C8.54182679 4.40299919 14.24095178 3.60413384 21 4 C22.35439668 6.70879335 22.06501451 9.00933268 22 12 C22.66 12 23.32 12 24 12 C24.33 11.34 24.66 10.68 25 10 C25.66 10.33 26.32 10.66 27 11 C26.01 8.69 25.02 6.38 24 4 C26.31 4 28.62 4 31 4 C32.15664737 9.48269069 32.11416255 14.80339274 32.0625 20.375 C32.05798828 21.30183594 32.05347656 22.22867188 32.04882812 23.18359375 C32.03711574 25.45579709 32.02071372 27.72786388 32 30 C32.66 30 33.32 30 34 30 C34 21.42 34 12.84 34 4 C35.98 3.67 37.96 3.34 40 3 C40 11.25 40 19.5 40 28 C40.66 28 41.32 28 42 28 C41.98428955 26.97060303 41.98428955 26.97060303 41.96826172 25.92041016 C41.92678126 22.82197711 41.90069931 19.72360239 41.875 16.625 C41.85824219 15.54476562 41.84148437 14.46453125 41.82421875 13.3515625 C41.81455078 11.8046875 41.81455078 11.8046875 41.8046875 10.2265625 C41.78897705 8.79691162 41.78897705 8.79691162 41.77294922 7.33837891 C42 5 42 5 44 3 C47.95158471 2.65638394 50.60535554 2.91098803 54 5 C54 5.99 54 6.98 54 8 C52.02 7.67 50.04 7.34 48 7 C48 9.97 48 12.94 48 16 C47.34 16 46.68 16 46 16 C46.495 21.94 46.495 21.94 47 28 C45.68 28 44.36 28 43 28 C42.855625 28.598125 42.71125 29.19625 42.5625 29.8125 C42.1127561 31.56150404 41.57107659 33.28677023 41 35 C42.32 35.33 43.64 35.66 45 36 C45 36.66 45 37.32 45 38 C46.546875 37.8453125 46.546875 37.8453125 48.125 37.6875 C53.15723716 38.09332558 54.46344709 39.54970448 58 43 C54.28071494 43 52.30458355 41.65229178 49 40 C39.24187766 37.46585018 30.34835271 39.68748736 21.65625 44.33203125 C13.39507088 49.51956579 6.75484727 57.53021249 4 67 C3.34687421 75.04459809 7.47696349 82.02934366 11 89 C9.0238076 91.00301854 7.04425526 93.00249867 5.0625 95 C4.49853516 95.57234375 3.93457031 96.1446875 3.35351562 96.734375 C1.92121224 98.17525505 0.46258871 99.58987143 -1 101 C-1.33 101 -1.66 101 -2 101 C-2.04633004 88.56952399 -2.08187266 76.1390685 -2.10362434 63.70852375 C-2.11406378 57.93659224 -2.12822601 52.16471979 -2.15087891 46.39282227 C-2.17260142 40.82316189 -2.18456743 35.25355834 -2.18975449 29.68385887 C-2.19345129 27.55838311 -2.20067015 25.43291047 -2.21146011 23.30745888 C-2.22596702 20.33161307 -2.22797826 17.3560024 -2.22705078 14.38012695 C-2.23424133 13.50043243 -2.24143188 12.62073792 -2.24884033 11.71438599 C-2.23412843 7.35521699 -2.0440575 3.96810896 0 0 Z " fill="#F5540A" transform="translate(71,79)"/>
<path d="M0 0 C5.5389817 6.05423581 8.84654907 13.41832933 8.75 21.625 C8.74097656 22.61886719 8.73195312 23.61273438 8.72265625 24.63671875 C8.71105469 25.39597656 8.69945312 26.15523437 8.6875 26.9375 C7.12515625 26.97617188 7.12515625 26.97617188 5.53125 27.015625 C-13.16307414 27.67102601 -29.0142994 31.72505711 -43.82421875 43.87109375 C-45.3125 44.9375 -45.3125 44.9375 -47.3125 44.9375 C-55.32787183 30.45100229 -55.32787183 30.45100229 -54.3125 23.9375 C-49.81684925 11.81810584 -42.66183618 3.97880873 -31.3203125 -2.13671875 C-20.92352995 -6.8730308 -9.62002949 -5.98982968 0 0 Z " fill="#060201" transform="translate(128.3125,122.0625)"/>
<path d="M0 0 C9.43812061 8.52998529 13.1380866 17.86371794 14.3125 30.3125 C13.62903966 38.37733204 12.6741436 46.67904818 6.75 52.6328125 C2.87146084 55.66292122 -1.01884096 58 -6 58 C-6.29390625 56.5459375 -6.29390625 56.5459375 -6.59375 55.0625 C-10.20016955 38.42393451 -16.84160579 25.8878068 -29 14 C-29.74507812 13.24332031 -30.49015625 12.48664063 -31.2578125 11.70703125 C-32.82157493 10.12111024 -34.40752454 8.55708712 -36 7 C-34.30162339 1.90487018 -29.45861417 -0.30625394 -25 -3 C-15.60786997 -6.72446536 -8.21082736 -5.6042155 0 0 Z " fill="#050202" transform="translate(250,172)"/>
<path d="M0 0 C3.59860977 4.38091624 4.12234521 7.64151015 4.14044189 13.2192688 C4.14900711 14.80401505 4.14900711 14.80401505 4.15774536 16.42077637 C4.15886322 17.57501099 4.15998108 18.72924561 4.16113281 19.91845703 C4.16609772 21.1385849 4.17106262 22.35871277 4.17617798 23.61581421 C4.1882823 26.96380261 4.19574567 30.31172854 4.20018864 33.65973139 C4.20312684 35.75912777 4.20723341 37.85851878 4.21169281 39.95791245 C4.22537394 46.54777345 4.23503311 53.13762205 4.2388947 59.72749627 C4.24335332 67.29232314 4.26079543 74.85696733 4.2898953 82.42173874 C4.31167838 88.29211949 4.32160802 94.16244954 4.32293582 100.03287017 C4.32397364 103.52666565 4.32965674 107.02028961 4.34775543 110.5140419 C4.50525023 142.81426427 0.00319138 169.04267645 -22 194 C-23.18531634 190.44405097 -22.71393436 189.47407716 -21.6875 185.9375 C-20.42156636 181.06172065 -19.88211033 176.61236137 -19.73828125 171.5703125 C-19.69550049 170.42054932 -19.65271973 169.27078613 -19.60864258 168.08618164 C-19.53702605 165.76339216 -19.50851456 163.43881679 -19.52612305 161.11499023 C-19.40408343 157.75678804 -19.19949569 155.1447006 -18 152 C-15.34561142 149.8578524 -12.77042747 148.577726 -9.65527344 147.203125 C-6.3604772 145.71022726 -4.78582797 144.1350112 -3 141 C0.23427767 132.22641842 0.37395765 123.23813887 0 114 C0.66 114 1.32 114 2 114 C1.89225643 100.61274249 1.77957493 87.2255364 1.66066074 73.83837318 C1.6055926 67.62159546 1.55219917 61.40481292 1.50268555 55.18798828 C1.45480338 49.18385305 1.40245351 43.1797716 1.34705925 37.17570114 C1.32674328 34.88970664 1.30801321 32.60369746 1.29092598 30.31767654 C1.2666421 27.10577362 1.23662266 23.89397009 1.20532227 20.68212891 C1.19668907 19.27734283 1.19668907 19.27734283 1.18788147 17.84417725 C1.1218364 11.84732531 0.69537791 5.95652952 0 0 Z " fill="#FA4F04" transform="translate(263,78)"/>
<path d="M0 0 C1.9140625 0.08984375 1.9140625 0.08984375 4 1 C5.2734375 3.44140625 5.2734375 3.44140625 6.375 6.5625 C10.75250172 17.69084774 16.90869315 23.99697839 27.99609375 28.87890625 C36.11399812 31.37538007 46.17168536 31.11340697 54 28 C55.2684375 27.195625 55.2684375 27.195625 56.5625 26.375 C59.29984674 24.83085568 60.90981733 24.7351272 64 25 C64.495 27.475 64.495 27.475 65 30 C63.48582906 30.96882567 61.96325846 31.92452752 60.4375 32.875 C59.59058594 33.40867187 58.74367187 33.94234375 57.87109375 34.4921875 C49.33748845 38.97378158 39.2133009 39.44768346 29.8984375 37.27734375 C27.17064575 36.32837958 24.60417292 35.24689598 22 34 C21.20980469 33.63777344 20.41960937 33.27554688 19.60546875 32.90234375 C8.93679128 27.54074264 2.7341559 19.2024677 -1 8 C-1.125 4.375 -1.125 4.375 -1 1 C-0.67 0.67 -0.34 0.34 0 0 Z " fill="#2B2829" transform="translate(100,259)"/>
<path d="M0 0 C0.69353805 -0.00170885 1.3870761 -0.0034177 2.10163045 -0.00517833 C4.42481279 -0.00847176 6.7477061 0.00252789 9.07086182 0.01345825 C10.73645521 0.0140224 12.40204911 0.01370574 14.06764221 0.01257324 C18.59003188 0.01199886 23.1123157 0.023767 27.63468075 0.03772116 C32.36057437 0.05021428 37.08647035 0.0513979 41.81237793 0.05377197 C50.76188309 0.05999091 59.71133945 0.07640734 68.66082311 0.09647095 C78.84934879 0.11881707 89.03787679 0.12982014 99.22642088 0.13986182 C120.18533729 0.16077319 141.14420976 0.19595723 162.10308838 0.24050903 C162.43308838 0.90050903 162.76308838 1.56050903 163.10308838 2.24050903 C162.26101869 2.23774365 161.41894899 2.23497828 160.55136204 2.2321291 C140.04406751 2.16582152 119.53679151 2.1162052 99.02941227 2.08507252 C89.11211861 2.06961609 79.1948966 2.04854996 69.27764893 2.01419067 C60.63187293 1.98425086 51.98614883 1.96492513 43.34032243 1.95824355 C38.76414497 1.95433906 34.18811596 1.94518847 29.61198616 1.92331886 C25.30036765 1.90288129 20.98895804 1.89668988 16.67729568 1.90118599 C15.09914577 1.90036403 13.5209885 1.89444179 11.94288063 1.88289261 C-1.93346727 1.75402155 -1.93346727 1.75402155 -14.27191162 7.49050903 C-19.85685764 13.34140487 -20.33400662 19.03181536 -20.23748779 26.75588989 C-20.23792587 27.68350128 -20.23836395 28.61111267 -20.23881531 29.5668335 C-20.23673604 32.61322552 -20.21344561 35.65905766 -20.18988037 38.70535278 C-20.18428136 40.82526855 -20.1800127 42.94518821 -20.17701721 45.06510925 C-20.16559255 50.63003356 -20.13614573 56.19472095 -20.10290527 61.759552 C-20.07215314 67.44392696 -20.05850088 73.1283404 -20.043396 78.81277466 C-20.01127384 89.95545656 -19.9601062 101.09796305 -19.89691162 112.24050903 C-18.24691162 110.92050903 -16.59691162 109.60050903 -14.89691162 108.24050903 C-15.22691162 109.89050903 -15.55691162 111.54050903 -15.89691162 113.24050903 C-16.55691162 113.24050903 -17.21691162 113.24050903 -17.89691162 113.24050903 C-17.89691162 113.90050903 -17.89691162 114.56050903 -17.89691162 115.24050903 C-20.37191162 116.23050903 -20.37191162 116.23050903 -22.89691162 117.24050903 C-22.94325839 104.30576789 -22.9787928 91.37104652 -23.00053596 78.43623924 C-23.01097174 72.43004803 -23.02512732 66.42391364 -23.04779053 60.41775513 C-23.06952605 54.62115546 -23.0814818 48.82461045 -23.08666611 43.02797318 C-23.09036057 40.81680059 -23.09757489 38.60563098 -23.10837173 36.39448166 C-23.1228959 33.29670504 -23.12488915 30.19915408 -23.1239624 27.10134888 C-23.13115295 26.18784668 -23.13834351 25.27434448 -23.14575195 24.3331604 C-23.1303136 19.56203031 -22.75107622 15.72389888 -20.89691162 11.24050903 C-20.23691162 11.24050903 -19.57691162 11.24050903 -18.89691162 11.24050903 C-18.56691162 9.59050903 -18.23691162 7.94050903 -17.89691162 6.24050903 C-16.57691162 5.91050903 -15.25691162 5.58050903 -13.89691162 5.24050903 C-13.56691162 3.92050903 -13.23691162 2.60050903 -12.89691162 1.24050903 C-12.23691162 1.57050903 -11.57691162 1.90050903 -10.89691162 2.24050903 C-10.05840982 1.78388728 -10.05840982 1.78388728 -9.2029686 1.31804085 C-6.04859108 -0.15587856 -3.47754686 -0.00515957 0 0 Z " fill="#FEDAC4" transform="translate(89.89691162109375,66.75949096679688)"/>
<path d="M0 0 C0.99 0 1.98 0 3 0 C3 8.25 3 16.5 3 25 C2.01 25 1.02 25 0 25 C-0.33 23.68 -0.66 22.36 -1 21 C-1.33 22.134375 -1.66 23.26875 -2 24.4375 C-2.8046875 26.37109375 -2.8046875 26.37109375 -4 28 C-6.83410961 29.05283188 -8.90701686 29 -12 29 C-12.33 28.67 -12.66 28.34 -13 28 C-14.66617115 27.95936168 -16.33388095 27.957279 -18 28 C-18.66 26.68 -19.32 25.36 -20 24 C-21.65 24.33 -23.3 24.66 -25 25 C-25.33 20.05 -25.66 15.1 -26 10 C-25.01 10 -24.02 10 -23 10 C-22.67 11.98 -22.34 13.96 -22 16 C-20.35 13.03 -18.7 10.06 -17 7 C-16.01 7 -15.02 7 -14 7 C-13.03929566 9.88211302 -12.89418117 11.69850044 -12.9375 14.6875 C-12.94652344 15.49574219 -12.95554688 16.30398437 -12.96484375 17.13671875 C-12.97644531 17.75160156 -12.98804688 18.36648437 -13 19 C-9.87182947 15.99214372 -7.15444427 12.78651319 -4.46484375 9.390625 C-3 8 -3 8 0 8 C0 5.36 0 2.72 0 0 Z " fill="#EA5714" transform="translate(240,81)"/>
<path d="M0 0 C3.38101147 2.70480917 3.91986876 4.4090321 4.5 8.6875 C4.19598969 14.39855088 2.35738713 20.86847032 -1.95703125 24.76953125 C-4.82590189 26.49743613 -6.70226679 26.40380407 -10 26 C-13.49406769 24.33237678 -14.82670681 23.25993978 -17 20 C-17.92930084 13.49489414 -15.54476967 8.33581118 -12 3 C-8.25022487 -0.44491536 -4.93100884 -1.05087074 0 0 Z " fill="#EFEEEF" transform="translate(182,225)"/>
<path d="M0 0 C3.00743914 1.98363007 4.62912332 3.44111182 5.48046875 7.01953125 C5.88178471 13.21281263 3.72432644 18.11917219 0 23 C-2.45806968 25.13032706 -3.63306571 25.93618534 -6.875 26.5 C-10.22306903 25.96430896 -12.36028212 25.01296133 -14.85546875 22.67578125 C-16.7118105 19.95779281 -16.74851256 17.63989047 -16.52734375 14.4140625 C-15.41105178 9.3039259 -12.97403819 4.74156662 -9.04296875 1.2734375 C-5.87824977 -0.69921716 -3.64161739 -0.51110419 0 0 Z " fill="#F0EFF0" transform="translate(132,205)"/>
<path d="M0 0 C5.44172644 -0.30231814 9.64967177 0.6195028 14.625 2.6875 C15.26695312 2.93177734 15.90890625 3.17605469 16.5703125 3.42773438 C20.98191154 5.21316637 23.94264817 7.36250551 27 11 C27.3125 13.5 27.3125 13.5 26 16 C22.13200551 19.63870616 18.17177681 21.34453527 12.875 21.625 C9.52174362 21.43441554 7.26682974 20.95735919 4.5625 18.9375 C0.75670397 14.57475821 -0.87040139 10.97637886 -1.25 5.1875 C-1 2 -1 2 0 0 Z " fill="#070707" transform="translate(123,256)"/>
<path d="M0 0 C3.59860977 4.38091624 4.12234521 7.64151015 4.14044189 13.2192688 C4.14900711 14.80401505 4.14900711 14.80401505 4.15774536 16.42077637 C4.15886322 17.57501099 4.15998108 18.72924561 4.16113281 19.91845703 C4.16609772 21.1385849 4.17106262 22.35871277 4.17617798 23.61581421 C4.1882823 26.96380261 4.19574567 30.31172854 4.20018864 33.65973139 C4.20312684 35.75912777 4.20723341 37.85851878 4.21169281 39.95791245 C4.22537394 46.54777345 4.23503311 53.13762205 4.2388947 59.72749627 C4.24335332 67.29232314 4.26079543 74.85696733 4.2898953 82.42173874 C4.31167838 88.29211949 4.32160802 94.16244954 4.32293582 100.03287017 C4.32397364 103.52666565 4.32965674 107.02028961 4.34775543 110.5140419 C4.49719823 141.1291264 4.49719823 141.1291264 1 154 C0.01 154.99 0.01 154.99 -1 156 C-1 152.37 -1 148.74 -1 145 C-2.65 145.33 -4.3 145.66 -6 146 C-5.38125 144.88625 -4.7625 143.7725 -4.125 142.625 C0.41322346 133.41980915 0.26178037 124.09308763 0 114 C0.66 114 1.32 114 2 114 C1.89225643 100.61274249 1.77957493 87.2255364 1.66066074 73.83837318 C1.6055926 67.62159546 1.55219917 61.40481292 1.50268555 55.18798828 C1.45480338 49.18385305 1.40245351 43.1797716 1.34705925 37.17570114 C1.32674328 34.88970664 1.30801321 32.60369746 1.29092598 30.31767654 C1.2666421 27.10577362 1.23662266 23.89397009 1.20532227 20.68212891 C1.1995668 19.74560486 1.19381134 18.80908081 1.18788147 17.84417725 C1.1218364 11.84732531 0.69537791 5.95652952 0 0 Z " fill="#E2591B" transform="translate(263,78)"/>
<path d="M0 0 C0.625 2.3125 0.625 2.3125 1 5 C0.01 6.485 0.01 6.485 -1 8 C1.475 8.495 1.475 8.495 4 9 C4.28515625 11.1953125 4.28515625 11.1953125 4 14 C2.05859375 16.4921875 2.05859375 16.4921875 -0.5625 18.875 C-1.40941406 19.67679688 -2.25632812 20.47859375 -3.12890625 21.3046875 C-6 23 -6 23 -13 22 C-13 16.06 -13 10.12 -13 4 C-14.98 4.99 -14.98 4.99 -17 6 C-17.99 6 -18.98 6 -20 6 C-19 3 -19 3 -17.28515625 2.05078125 C-11.39660287 0.09482942 -6.1844448 -0.34860127 0 0 Z " fill="#FEDDBE" transform="translate(91,85)"/>
<path d="M0 0 C3 1 3 1 3.93612957 2.83829594 C6.04521442 9.87664068 6.4212355 16.39109912 6.37231445 23.71069336 C6.37596512 24.94294144 6.37961578 26.17518951 6.38337708 27.44477844 C6.39005371 30.79626417 6.38342791 34.14718623 6.37004495 37.49861598 C6.35864002 41.02483907 6.36284495 44.5510495 6.36479187 48.07728577 C6.36567213 53.99745456 6.35465188 59.91750827 6.33618164 65.83764648 C6.31502794 72.65640265 6.31150371 79.4749903 6.3177436 86.29377264 C6.32346343 92.88468367 6.31776026 99.4755361 6.30657005 106.06643867 C6.30195761 108.85681824 6.30103554 111.64716156 6.3031559 114.43754387 C6.30541135 118.34506237 6.29084207 122.25242462 6.2746582 126.15991211 C6.27837433 127.87236618 6.27837433 127.87236618 6.28216553 129.61941528 C6.23617911 136.61448176 5.49588486 143.16522791 4 150 C3.34 150 2.68 150 2 150 C2.07031811 149.28403215 2.14063622 148.56806431 2.21308517 147.83040047 C2.91062661 140.21913658 3.15362791 132.68678409 3.16113281 125.04638672 C3.16609772 123.8122403 3.17106262 122.57809387 3.17617798 121.30654907 C3.18817403 117.95957174 3.19571314 114.6126559 3.20018864 111.26566458 C3.20314198 109.16762758 3.20725044 107.06959577 3.21169281 104.97156143 C3.22531656 98.38601585 3.23501168 91.80048242 3.2388947 85.21492374 C3.24338216 77.65009798 3.2609834 70.08545229 3.2898953 62.52068126 C3.31156856 56.64347023 3.32160176 50.76630972 3.32293582 44.88905919 C3.32397854 41.39116697 3.32977345 37.89344521 3.34775543 34.39559555 C3.36742393 30.49528009 3.36292469 26.5951879 3.35644531 22.69482422 C3.3656601 21.55273499 3.37487488 20.41064575 3.3843689 19.23394775 C3.34856213 12.33243691 2.39630295 6.48177035 0 0 Z " fill="#FFECD5" transform="translate(263,76)"/>
<path d="M0 0 C1.32 0 2.64 0 4 0 C4 0.99 4 1.98 4 3 C4.66 3 5.32 3 6 3 C6 2.34 6 1.68 6 1 C7.98 1 9.96 1 12 1 C12.33 3.31 12.66 5.62 13 8 C14.32 5.69 15.64 3.38 17 1 C18.32 1.33 19.64 1.66 21 2 C21 7.28 21 12.56 21 18 C20.01 18 19.02 18 18 18 C17.67 14.04 17.34 10.08 17 6 C15.68 9.3 14.36 12.6 13 16 C12.030625 15.979375 11.06125 15.95875 10.0625 15.9375 C7.12534105 15.64381501 7.12534105 15.64381501 6 17 C4.33382885 17.04063832 2.66611905 17.042721 1 17 C-0.13480527 13.39006828 -0.10015767 10.0157673 -0.0625 6.25 C-0.05347656 5.07953125 -0.04445313 3.9090625 -0.03515625 2.703125 C-0.02355469 1.81109375 -0.01195313 0.9190625 0 0 Z " fill="#F25611" transform="translate(121,90)"/>
<path d="M0 0 C3.49306931 15.21980198 3.49306931 15.21980198 0.1875 21.375 C-2 24 -2 24 -5 26 C-7.6875 26.125 -7.6875 26.125 -10 26 C-10 25.34 -10 24.68 -10 24 C-8.20963542 23.0234375 -6.41927083 22.046875 -4.62890625 21.0703125 C-2.83381685 20.08589976 -2.83381685 20.08589976 -2 18 C-1.90500497 16.50243129 -1.87012802 15.00057068 -1.875 13.5 C-1.87242187 12.7059375 -1.86984375 11.911875 -1.8671875 11.09375 C-1.86722004 8.94081466 -1.86722004 8.94081466 -3 7 C-5.31 9.64 -7.62 12.28 -10 15 C-11.65 14.67 -13.3 14.34 -15 14 C-14.53162834 9.22260904 -13.82557877 5.91233983 -11 2 C-10.608125 1.38125 -10.21625 0.7625 -9.8125 0.125 C-6.67391084 -1.82308983 -3.52654081 -0.63593359 0 0 Z " fill="#FEDABB" transform="translate(160,91)"/>
<path d="M0 0 C0.99 0 1.98 0 3 0 C3 8.25 3 16.5 3 25 C2.01 25 1.02 25 0 25 C-0.33 23.68 -0.66 22.36 -1 21 C-1.8353125 22.2375 -1.8353125 22.2375 -2.6875 23.5 C-5 26 -5 26 -7.6875 26.375 C-10 26 -10 26 -11 25 C-11.50482805 21.46620362 -11.56253305 18.96236423 -9.73046875 15.828125 C-7.63658044 13.03627392 -5.46782319 10.46782319 -3 8 C-2.01 8 -1.02 8 0 8 C0 5.36 0 2.72 0 0 Z " fill="#FBCFB1" transform="translate(240,81)"/>
<path d="M0 0 C0.69353805 -0.00170885 1.3870761 -0.0034177 2.10163045 -0.00517833 C4.42481279 -0.00847176 6.7477061 0.00252789 9.07086182 0.01345825 C10.73645521 0.0140224 12.40204911 0.01370574 14.06764221 0.01257324 C18.59003188 0.01199886 23.1123157 0.023767 27.63468075 0.03772116 C32.36057437 0.05021428 37.08647035 0.0513979 41.81237793 0.05377197 C50.76188309 0.05999091 59.71133945 0.07640734 68.66082311 0.09647095 C78.84934879 0.11881707 89.03787679 0.12982014 99.22642088 0.13986182 C120.18533729 0.16077319 141.14420976 0.19595723 162.10308838 0.24050903 C162.43308838 0.90050903 162.76308838 1.56050903 163.10308838 2.24050903 C162.26101869 2.23774365 161.41894899 2.23497828 160.55136204 2.2321291 C140.04406751 2.16582152 119.53679151 2.1162052 99.02941227 2.08507252 C89.11211861 2.06961609 79.1948966 2.04854996 69.27764893 2.01419067 C60.63187293 1.98425086 51.98614883 1.96492513 43.34032243 1.95824355 C38.76414497 1.95433906 34.18811596 1.94518847 29.61198616 1.92331886 C25.30036765 1.90288129 20.98895804 1.89668988 16.67729568 1.90118599 C15.09914577 1.90036403 13.5209885 1.89444179 11.94288063 1.88289261 C1.59923588 1.81093874 -7.11642121 2.29243488 -15.89691162 8.24050903 C-15.89691162 7.25050903 -15.89691162 6.26050903 -15.89691162 5.24050903 C-15.23691162 5.24050903 -14.57691162 5.24050903 -13.89691162 5.24050903 C-13.56691162 3.92050903 -13.23691162 2.60050903 -12.89691162 1.24050903 C-12.23691162 1.57050903 -11.57691162 1.90050903 -10.89691162 2.24050903 C-10.05840982 1.78388728 -10.05840982 1.78388728 -9.2029686 1.31804085 C-6.04859108 -0.15587856 -3.47754686 -0.00515957 0 0 Z " fill="#FEF4DF" transform="translate(89.89691162109375,66.75949096679688)"/>
<path d="M0 0 C1.58736667 0.00056479 3.17473386 0.00024624 4.76210022 -0.00088501 C9.0528582 -0.00145689 13.3435035 0.01027068 17.63423538 0.02426291 C22.1252103 0.03679779 26.61618803 0.03794294 31.10717773 0.04031372 C39.60322668 0.0465204 48.09922391 0.0629202 56.59525013 0.0830127 C66.27118141 0.10539701 75.94711521 0.11637149 85.62306595 0.12640357 C105.51957278 0.14728716 125.41603313 0.18244731 145.3125 0.22705078 C145.3125 0.55705078 145.3125 0.88705078 145.3125 1.22705078 C144.50043091 1.23036093 143.68836182 1.23367107 142.85168457 1.23708153 C123.07903552 1.3183531 103.30646273 1.41045923 83.53392029 1.51457787 C73.97201126 1.56466873 64.41011065 1.61111206 54.84814453 1.64892578 C46.51253264 1.68189907 38.17698677 1.72175975 29.84144783 1.76984084 C25.42913229 1.79505278 21.01686025 1.81684967 16.60449219 1.83039474 C12.44798102 1.84326332 8.29161945 1.86536911 4.13519096 1.89443398 C2.61308857 1.90347235 1.09096212 1.90919121 -0.4311657 1.91126442 C-11.22878728 1.85043771 -11.22878728 1.85043771 -21.6875 4.22705078 C-23.70135848 6.18081459 -23.70135848 6.18081459 -24.6875 8.22705078 C-26.0075 7.56705078 -27.3275 6.90705078 -28.6875 6.22705078 C-20.66667469 -1.29247295 -10.27398896 -0.05127108 0 0 Z " fill="#DE5B22" transform="translate(103.6875,67.77294921875)"/>
<path d="M0 0 C0.763125 0.20625 1.52625 0.4125 2.3125 0.625 C3.37973961 4.08722615 3.41423486 7.26539266 3.375 10.875 C3.36597656 11.95265625 3.35695313 13.0303125 3.34765625 14.140625 C3.33605469 14.96046875 3.32445312 15.7803125 3.3125 16.625 C2.3225 16.625 1.3325 16.625 0.3125 16.625 C-0.0175 14.645 -0.3475 12.665 -0.6875 10.625 C-1.06261719 11.058125 -1.43773437 11.49125 -1.82421875 11.9375 C-6.03927961 16.52416572 -6.03927961 16.52416572 -9.5 17.0625 C-11.6875 16.625 -11.6875 16.625 -12.6875 15.625 C-13.05941304 12.49338444 -12.89535386 10.97294167 -11.26171875 8.23828125 C-10.63910156 7.47902344 -10.01648438 6.71976562 -9.375 5.9375 C-8.45267578 4.78701172 -8.45267578 4.78701172 -7.51171875 3.61328125 C-3.72030813 -0.51911276 -3.72030813 -0.51911276 0 0 Z " fill="#FDD8BC" transform="translate(258.6875,90.375)"/>
<path d="M0 0 C0.763125 0.20625 1.52625 0.4125 2.3125 0.625 C3.37973961 4.08722615 3.41423486 7.26539266 3.375 10.875 C3.36597656 11.95265625 3.35695312 13.0303125 3.34765625 14.140625 C3.33605469 14.96046875 3.32445312 15.7803125 3.3125 16.625 C2.3225 16.625 1.3325 16.625 0.3125 16.625 C-0.0175 14.645 -0.3475 12.665 -0.6875 10.625 C-1.06261719 11.058125 -1.43773437 11.49125 -1.82421875 11.9375 C-6.03927961 16.52416572 -6.03927961 16.52416572 -9.5 17.0625 C-11.6875 16.625 -11.6875 16.625 -12.6875 15.625 C-13.05941304 12.49338444 -12.89535386 10.97294167 -11.26171875 8.23828125 C-10.63910156 7.47902344 -10.01648438 6.71976562 -9.375 5.9375 C-8.45267578 4.78701172 -8.45267578 4.78701172 -7.51171875 3.61328125 C-3.72030813 -0.51911276 -3.72030813 -0.51911276 0 0 Z " fill="#FDD8BB" transform="translate(206.6875,90.375)"/>
<path d="M0 0 C1.41152344 -0.00773437 1.41152344 -0.00773437 2.8515625 -0.015625 C5.375 0.25 5.375 0.25 8.375 2.25 C8.3125 4.4375 8.3125 4.4375 7.375 7.25 C5.78515625 8.37890625 5.78515625 8.37890625 3.875 9.5 C1.41908199 11.06194377 0.52677946 11.73568446 -0.30859375 14.56640625 C-0.53702734 16.81208417 -0.65940763 18.9938425 -0.625 21.25 C-1.945 20.92 -3.265 20.59 -4.625 20.25 C-4.625 14.64 -4.625 9.03 -4.625 3.25 C-6.605 4.24 -6.605 4.24 -8.625 5.25 C-9.615 5.25 -10.605 5.25 -11.625 5.25 C-10.625 2.25 -10.625 2.25 -8.4140625 1.078125 C-5.47002701 0.20398561 -3.06491788 -0.0168866 0 0 Z " fill="#FEE3C6" transform="translate(184.625,86.75)"/>
<path d="M0 0 C0.93423645 3.01031744 1.04449911 3.86650268 0 7 C0.67804688 6.7834375 1.35609375 6.566875 2.0546875 6.34375 C8.61807079 4.38018935 14.15674413 3.70246714 21 4 C21.66 7.3 22.32 10.6 23 14 C21.68 14 20.36 14 19 14 C19.33 11.69 19.66 9.38 20 7 C18.54273061 6.91628452 17.08391081 6.85963404 15.625 6.8125 C14.40683594 6.76029297 14.40683594 6.76029297 13.1640625 6.70703125 C8.77462467 7.0082503 8.77462467 7.0082503 0 10 C-0.33 39.04 -0.66 68.08 -1 98 C-0.34 98.33 0.32 98.66 1 99 C-0.485 99.99 -0.485 99.99 -2 101 C-2.04633004 88.56952399 -2.08187266 76.1390685 -2.10362434 63.70852375 C-2.11406378 57.93659224 -2.12822601 52.16471979 -2.15087891 46.39282227 C-2.17260142 40.82316189 -2.18456743 35.25355834 -2.18975449 29.68385887 C-2.19345129 27.55838311 -2.20067015 25.43291047 -2.21146011 23.30745888 C-2.22596702 20.33161307 -2.22797826 17.3560024 -2.22705078 14.38012695 C-2.23424133 13.50043243 -2.24143188 12.62073792 -2.24884033 11.71438599 C-2.23412843 7.35521699 -2.0440575 3.96810896 0 0 Z " fill="#D55C29" transform="translate(71,79)"/>
<path d="M0 0 C0.99 0 1.98 0 3 0 C3.33 2.31 3.66 4.62 4 7 C5.32 4.69 6.64 2.38 8 0 C9.32 0.33 10.64 0.66 12 1 C12 6.28 12 11.56 12 17 C11.01 17 10.02 17 9 17 C8.67 13.04 8.34 9.08 8 5 C6.68 8.3 5.36 11.6 4 15 C3.01 15 2.02 15 1 15 C-0.00109515 11.68929162 -0.10356134 8.69915231 -0.0625 5.25 C-0.05347656 4.26515625 -0.04445312 3.2803125 -0.03515625 2.265625 C-0.02355469 1.51796875 -0.01195312 0.7703125 0 0 Z " fill="#FCC6A5" transform="translate(130,91)"/>
<path d="M0 0 C2.31 0 4.62 0 7 0 C8.06309567 5.17317421 8.11693938 10.12369336 8.0625 15.375 C8.05798828 16.20644531 8.05347656 17.03789063 8.04882812 17.89453125 C8.03713164 19.92971897 8.01919935 21.96486923 8 24 C6.68 24 5.36 24 4 24 C2.46781455 19.02356295 2.61983288 13.79088745 2.37890625 8.62890625 C2.03407185 5.32631695 1.41557069 2.97441776 0 0 Z " fill="#E75D1E" transform="translate(95,83)"/>
<path d="M0 0 C5.70676416 9.89172454 4.21547029 26.51620707 1.5 37.25 C1.02530615 38.84110345 0.53654964 40.42867606 0 42 C-1.28317892 38.15046324 -1.06643637 35.05261865 -1 31 C-2.65 31.33 -4.3 31.66 -6 32 C-5.38125 30.88625 -4.7625 29.7725 -4.125 28.625 C0.41322346 19.41980915 0.26178037 10.09308763 0 0 Z " fill="#E15819" transform="translate(263,192)"/>
<path d="M0 0 C1.8125 1.125 1.8125 1.125 3 3 C3.3125 6.0625 3.3125 6.0625 3 9 C1 11 1 11 -1.9375 11.3125 C-5 11 -5 11 -6.875 9.8125 C-8.40659584 7.34492892 -8.42822025 5.85480169 -8 3 C-5.85607122 -0.27231235 -3.76836426 -0.56525464 0 0 Z " fill="#110F10" transform="translate(177,232)"/>
<path d="M0 0 C0.99 0 1.98 0 3 0 C3.33 1.98 3.66 3.96 4 6 C5.32 4.02 6.64 2.04 8 0 C9.32 0.33 10.64 0.66 12 1 C12 5.95 12 10.9 12 16 C11.34 16 10.68 16 10 16 C10 11.71 10 7.42 10 3 C9.34 3 8.68 3 8 3 C7.69255859 3.92232422 7.69255859 3.92232422 7.37890625 4.86328125 C6.25260417 8.2421875 5.12630208 11.62109375 4 15 C3.01 15 2.02 15 1 15 C0.67 10.05 0.34 5.1 0 0 Z " fill="#FEE2CA" transform="translate(214,91)"/>
<path d="M0 0 C1.32 0 2.64 0 4 0 C4.33 7.92 4.66 15.84 5 24 C3.35 23.67 1.7 23.34 0 23 C0 15.41 0 7.82 0 0 Z " fill="#EC7442" transform="translate(105,83)"/>
<path d="M0 0 C6.75 0 6.75 0 10 2 C10 2.99 10 3.98 10 5 C7.03 4.505 7.03 4.505 4 4 C4 6.97 4 9.94 4 13 C3.34 13 2.68 13 2 13 C2.33 16.63 2.66 20.26 3 24 C2.01 24 1.02 24 0 24 C0 16.08 0 8.16 0 0 Z " fill="#F28350" transform="translate(115,82)"/>
<path d="M0 0 C2 2 2 2 2.3125 4.4375 C2 7 2 7 0.9375 8.875 C-2.11569315 10.64782183 -4.66411708 9.69235306 -8 9 C-9.32561852 2.61292897 -9.32561852 2.61292897 -7.9375 0 C-5.02830946 -1.5015177 -3.0821738 -0.85251616 0 0 Z " fill="#0E0D0E" transform="translate(131,214)"/>
<path d="M0 0 C0 0.66 0 1.32 0 2 C-0.99 2 -1.98 2 -3 2 C-2.835 2.99 -2.67 3.98 -2.5 5 C-1.91525483 9.02732942 -1.92867976 12.93474623 -2 17 C-2.33 17 -2.66 17 -3 17 C-3.98248524 12.9472484 -4.08159574 9.16138263 -4 5 C-4.66 5 -5.32 5 -6 5 C-6 9.62 -6 14.24 -6 19 C-8.97 19.33 -11.94 19.66 -15 20 C-15 19.34 -15 18.68 -15 18 C-15.66 17.67 -16.32 17.34 -17 17 C-16.02433888 15.83040013 -15.044375 14.66438823 -14.0625 13.5 C-13.51722656 12.8503125 -12.97195312 12.200625 -12.41015625 11.53125 C-11.71212891 10.77328125 -11.71212891 10.77328125 -11 10 C-10.67 10 -10.34 10 -10 10 C-10 12.64 -10 15.28 -10 18 C-9.01 18 -8.02 18 -7 18 C-7.33 13.05 -7.66 8.1 -8 3 C-3 0 -3 0 0 0 Z " fill="#EA6528" transform="translate(217,89)"/>
<path d="M0 0 C4.68560379 4.08100975 4.83471716 6.91743621 5.3125 12.9375 C5.26379585 17.23158254 3.75934584 19.688785 1 23 C-2.22791555 25.1519437 -3.28400809 25.20086443 -7 25 C-7 24.34 -7 23.68 -7 23 C-5.20963542 22.0234375 -3.41927083 21.046875 -1.62890625 20.0703125 C0.16618315 19.08589976 0.16618315 19.08589976 1 17 C1.07065617 14.95944995 1.08421976 12.91665743 1.0625 10.875 C1.05347656 9.77929688 1.04445312 8.68359375 1.03515625 7.5546875 C1.02355469 6.71164063 1.01195312 5.86859375 1 5 C0.34 5 -0.32 5 -1 5 C-0.67 3.35 -0.34 1.7 0 0 Z " fill="#FFE4C7" transform="translate(157,92)"/>
<path d="M0 0 C0.99 0 1.98 0 3 0 C3 8.25 3 16.5 3 25 C2.34 25 1.68 25 1 25 C1 22.36 1 19.72 1 17 C0.34 17 -0.32 17 -1 17 C-0.67 15.02 -0.34 13.04 0 11 C-0.99 11 -1.98 11 -3 11 C-3 10.01 -3 9.02 -3 8 C-2.01 8 -1.02 8 0 8 C0 5.36 0 2.72 0 0 Z " fill="#FEF0DB" transform="translate(240,81)"/>
<path d="M0 0 C3 0 6 0 9 0 C9.33 1.32 9.66 2.64 10 4 C9.43410156 4.32871094 8.86820313 4.65742187 8.28515625 4.99609375 C3.73855289 7.84705824 3.73855289 7.84705824 1.24609375 12.40234375 C1.02468633 14.62696116 0.92059876 16.76684001 1 19 C0.01 18.67 -0.98 18.34 -2 18 C-1.34 18 -0.68 18 0 18 C0 17.37351562 0 16.74703125 0 16.1015625 C0 10.734375 0 5.3671875 0 0 Z " fill="#F6B894" transform="translate(183,89)"/>
<path d="M0 0 C-0.4743098 4.2687882 -2.80716564 6.31511656 -6 9 C-8.8125 9.8125 -8.8125 9.8125 -11 10 C-11 7.69 -11 5.38 -11 3 C-7.14243493 0.84694043 -4.44870215 -0.39253254 0 0 Z " fill="#EC5B1C" transform="translate(92,95)"/>
<path d="M0 0 C1.65 0.33 3.3 0.66 5 1 C4.67 3.64 4.34 6.28 4 9 C7.82097239 8.46930939 10.06171403 7.50298434 13 5 C12.4375 7.875 12.4375 7.875 11 11 C7.5625 12.3125 7.5625 12.3125 4 13 C3.01 13.33 2.02 13.66 1 14 C0.01 13.34 -0.98 12.68 -2 12 C-1.34 12 -0.68 12 0 12 C0 8.04 0 4.08 0 0 Z " fill="#F15A15" transform="translate(142,96)"/>
<path d="M0 0 C0.33 0 0.66 0 1 0 C1.02701408 2.10409639 1.04640223 4.20829178 1.0625 6.3125 C1.07410156 7.48425781 1.08570313 8.65601563 1.09765625 9.86328125 C1 13 1 13 0 16 C0.66 16 1.32 16 2 16 C2 14.68 2 13.36 2 12 C2.99 12 3.98 12 5 12 C5 10.68 5 9.36 5 8 C5.99 8.33 6.98 8.66 8 9 C4.59445921 14.26630019 1.12331138 19.2703193 -3 24 C-4.23777675 20.28666974 -3.586962 18.57650728 -2.625 14.8125 C-1.4108521 9.85611542 -0.4974693 5.07418687 0 0 Z " fill="#E4662C" transform="translate(244,248)"/>
<path d="M0 0 C0.93423645 3.01031744 1.04449911 3.86650268 0 7 C0.67804688 6.7834375 1.35609375 6.566875 2.0546875 6.34375 C8.61807079 4.38018935 14.15674413 3.70246714 21 4 C21.66 7.3 22.32 10.6 23 14 C21.68 14 20.36 14 19 14 C19.33 11.69 19.66 9.38 20 7 C12.7515055 6.58359712 6.83085645 7.55833216 0 10 C-1 9 -1 9 -1.1328125 7.1875 C-1.13023438 6.465625 -1.12765625 5.74375 -1.125 5 C-1.12757812 4.278125 -1.13015625 3.55625 -1.1328125 2.8125 C-1 1 -1 1 0 0 Z " fill="#E56E37" transform="translate(71,79)"/>
<path d="M0 0 C1.921875 0.7109375 1.921875 0.7109375 4 2 C4.828125 4.1640625 4.828125 4.1640625 5.25 6.625 C5.39953125 7.44226563 5.5490625 8.25953125 5.703125 9.1015625 C5.80109375 9.72804687 5.8990625 10.35453125 6 11 C6.66 11 7.32 11 8 11 C8 14.63 8 18.26 8 22 C11.96 22.33 15.92 22.66 20 23 C20 23.66 20 24.32 20 25 C17.8537974 24.85970581 15.70803782 24.71261836 13.5625 24.5625 C12.36753906 24.48128906 11.17257813 24.40007812 9.94140625 24.31640625 C7 24 7 24 6 23 C5.86576328 21.35634597 5.76835555 19.70964311 5.6875 18.0625 C5.15792003 11.41236469 2.95875592 5.91751184 0 0 Z " fill="#DE6022" transform="translate(131,126)"/>
<path d="M0 0 C2.97 0.99 5.94 1.98 9 3 C8.67 4.98 8.34 6.96 8 9 C4.26512223 8.5020163 2.18762365 8.12508244 -1 6 C-1.25 3.4375 -1.25 3.4375 -1 1 C-0.67 0.67 -0.34 0.34 0 0 Z " fill="#242021" transform="translate(120,285)"/>
<path d="M0 0 C0.66 0 1.32 0 2 0 C0.125 5.75 0.125 5.75 -1 8 C2.53372712 6.03681826 5.24479785 3.95929119 8 1 C7.6984013 4.51865145 6.99394038 6.00757452 4.75 8.8125 C2 11 2 11 -0.75 11.375 C-3 11 -3 11 -4 10 C-4.49027921 6.46998971 -4.13576897 5.20365346 -2.125 2.1875 C-1.42375 1.465625 -0.7225 0.74375 0 0 Z " fill="#FEDFC2" transform="translate(198,96)"/>
<path d="M0 0 C0.83854735 6.90188971 1.01593448 13.11422188 0 20 C-0.66 20 -1.32 20 -2 20 C-2 14.06 -2 8.12 -2 2 C-3.98 2.99 -3.98 2.99 -6 4 C-6.99 4 -7.98 4 -9 4 C-8.67 3.01 -8.34 2.02 -8 1 C-5.29120665 -0.35439668 -2.99066732 -0.06501451 0 0 Z " fill="#FEE8D3" transform="translate(80,87)"/>
<path d="M0 0 C1.65 0.33 3.3 0.66 5 1 C5 1.99 5 2.98 5 4 C4.01 4 3.02 4 2 4 C2.03480469 4.81984375 2.06960937 5.6396875 2.10546875 6.484375 C2.13253906 7.56203125 2.15960938 8.6396875 2.1875 9.75 C2.22230469 10.81734375 2.25710937 11.8846875 2.29296875 12.984375 C1.97082786 16.30027855 1.22851086 17.59016673 -1 20 C-2.20272819 17.59454362 -2.10071472 16.05003047 -2.0625 13.375 C-2.05347656 12.55773437 -2.04445313 11.74046875 -2.03515625 10.8984375 C-2.02355469 10.27195312 -2.01195313 9.64546875 -2 9 C-1.34 9 -0.68 9 0 9 C0 6.03 0 3.06 0 0 Z " fill="#E95916" transform="translate(119,86)"/>
<path d="M0 0 C2.05078125 0.03255208 4.1015625 0.06510417 6.15234375 0.09765625 C5.60934688 3.89863436 4.07957603 5.67223522 1.15234375 8.09765625 C-1.09765625 8.84765625 -1.09765625 8.84765625 -2.84765625 9.09765625 C-2.9453125 2.9453125 -2.9453125 2.9453125 -2.84765625 1.09765625 C-1.84765625 0.09765625 -1.84765625 0.09765625 0 0 Z " fill="#EA5B1C" transform="translate(82.84765625,86.90234375)"/>
<path d="M0 0 C1.32 0.33 2.64 0.66 4 1 C4.33 7.6 4.66 14.2 5 21 C5.66 21.33 6.32 21.66 7 22 C5.25 25.875 5.25 25.875 3 27 C3 18.75 3 10.5 3 2 C2.01 2 1.02 2 0 2 C0 4.64 0 7.28 0 10 C-0.99 9.67 -1.98 9.34 -3 9 C-2.34 9 -1.68 9 -1 9 C-1.020625 7.700625 -1.04125 6.40125 -1.0625 5.0625 C-1.08399454 3.70834367 -1.07148199 2.35243917 -1 1 C-0.67 0.67 -0.34 0.34 0 0 Z " fill="#E25A1F" transform="translate(240,79)"/>
<path d="M0 0 C0.33 0 0.66 0 1 0 C1.29296875 2.19921875 1.29296875 2.19921875 1 5 C-1.01171875 7.45703125 -1.01171875 7.45703125 -3.6875 9.8125 C-4.55761719 10.60269531 -5.42773438 11.39289063 -6.32421875 12.20703125 C-9 14 -9 14 -14 14 C-14 10.7 -14 7.4 -14 4 C-13.67 4 -13.34 4 -13 4 C-13 6.31 -13 8.62 -13 11 C-8.28530661 9.22087042 -5.89888562 8.20338415 -3 4 C-2.01 4 -1.02 4 0 4 C0 2.68 0 1.36 0 0 Z " fill="#FDCCAC" transform="translate(94,94)"/>
<path d="M0 0 C0.99 0 1.98 0 3 0 C3.33 5.61 3.66 11.22 4 17 C3.01 17 2.02 17 1 17 C-0.13480527 13.39006828 -0.10015767 10.0157673 -0.0625 6.25 C-0.05347656 5.07953125 -0.04445313 3.9090625 -0.03515625 2.703125 C-0.02355469 1.81109375 -0.01195313 0.9190625 0 0 Z " fill="#FDD3B5" transform="translate(121,90)"/>
<path d="M0 0 C0.99 0 1.98 0 3 0 C3.268125 0.61875 3.53625 1.2375 3.8125 1.875 C4.95556848 4.2995233 4.95556848 4.2995233 8 6 C7.65066406 6.44730469 7.30132812 6.89460938 6.94140625 7.35546875 C4.31101372 10.85023956 2.40792858 13.51278557 2 18 C1.67 18 1.34 18 1 18 C1 15.36 1 12.72 1 10 C1.66 10 2.32 10 3 10 C3 9.34 3 8.68 3 8 C1.68 7.34 0.36 6.68 -1 6 C-0.835 5.195625 -0.67 4.39125 -0.5 3.5625 C0.03191839 1.2715557 0.03191839 1.2715557 0 0 Z " fill="#F05814" transform="translate(192,88)"/>
<path d="M0 0 C0.33 0 0.66 0 1 0 C1.2611368 5.74500967 0.31161577 8.13835181 -2.9375 12.75 C-7.44170537 16.05921211 -11.58909098 15.42642891 -17 15 C-17.33 13.68 -17.66 12.36 -18 11 C-17.67 11.66 -17.34 12.32 -17 13 C-12.96983668 13.68598525 -11.03792928 13.68473344 -7.56640625 11.39453125 C-2.00882301 6.74281662 -2.00882301 6.74281662 0 0 Z " fill="#ED6121" transform="translate(95,94)"/>
<path d="M0 0 C0.99 0.33 1.98 0.66 3 1 C4.77276228 6.37352455 5.28105918 11.34690972 5.1953125 17 C5.1924826 17.7211499 5.18965271 18.4422998 5.18673706 19.18530273 C5.17566696 21.45704747 5.15058895 23.72837727 5.125 26 C5.1149531 27.55337967 5.10583027 29.1067656 5.09765625 30.66015625 C5.07577111 34.44026062 5.04133514 38.22006032 5 42 C4.67 42 4.34 42 4 42 C3.98541748 41.08299316 3.97083496 40.16598633 3.95581055 39.22119141 C3.89424129 35.77287775 3.81999915 32.32529547 3.73754883 28.87744141 C3.70458303 27.39381957 3.67646583 25.91008085 3.65356445 24.42626953 C3.51878034 15.9205314 3.16530038 8.02756365 0 0 Z " fill="#FED2B3" transform="translate(263,76)"/>
<path d="M0 0 C0.66 0 1.32 0 2 0 C2.33 7.59 2.66 15.18 3 23 C2.01 23 1.02 23 0 23 C0 15.41 0 7.82 0 0 Z " fill="#FEE8CD" transform="translate(107,83)"/>
<path d="M0 0 C5.2975334 0.51683253 8.66762987 2.02680481 13 5 C13.9375 7.25 13.9375 7.25 14 9 C13.01 9 12.02 9 11 9 C11 9.66 11 10.32 11 11 C9.68 10.67 8.36 10.34 7 10 C7 8.35 7 6.7 7 5 C3.535 3.02 3.535 3.02 0 1 C0 0.67 0 0.34 0 0 Z " fill="#F25C1E" transform="translate(249,69)"/>
<path d="M0 0 C0.66 0.33 1.32 0.66 2 1 C0.50897439 5.60862461 -1.69454418 8.53330244 -5 12 C-5.99 12 -6.98 12 -8 12 C-6.64994369 6.32976351 -4.1842771 3.82042691 0 0 Z " fill="#E56429" transform="translate(257,92)"/>
<path d="M0 0 C0.66 0.33 1.32 0.66 2 1 C0.50897439 5.60862461 -1.69454418 8.53330244 -5 12 C-5.99 12 -6.98 12 -8 12 C-6.64994369 6.32976351 -4.1842771 3.82042691 0 0 Z " fill="#E65F26" transform="translate(205,92)"/>
<path d="M0 0 C0.66 0 1.32 0 2 0 C2.33 7.59 2.66 15.18 3 23 C2.01 23 1.02 23 0 23 C0 15.41 0 7.82 0 0 Z " fill="#FFEACF" transform="translate(115,83)"/>
<path d="M0 0 C0.33 0 0.66 0 1 0 C1 2.64 1 5.28 1 8 C2.32 7.67 3.64 7.34 5 7 C5 7.66 5 8.32 5 9 C0.545 9.495 0.545 9.495 -4 10 C-4 9.34 -4 8.68 -4 8 C-4.66 7.67 -5.32 7.34 -6 7 C-5.02433888 5.83040013 -4.044375 4.66438823 -3.0625 3.5 C-2.51722656 2.8503125 -1.97195312 2.200625 -1.41015625 1.53125 C-0.71212891 0.77328125 -0.71212891 0.77328125 0 0 Z " fill="#EA5C1C" transform="translate(206,99)"/>
<path d="M0 0 C0.33 0.99 0.66 1.98 1 3 C-0.25 4.5625 -0.25 4.5625 -2 6 C-4.1875 5.6875 -4.1875 5.6875 -6 5 C-6 5.66 -6 6.32 -6 7 C-7.32 7 -8.64 7 -10 7 C-10 12.28 -10 17.56 -10 23 C-10.33 23 -10.66 23 -11 23 C-11 17.39 -11 11.78 -11 6 C-7.37 4.02 -3.74 2.04 0 0 Z " fill="#DC5A1B" transform="translate(256,224)"/>
<path d="M0 0 C-0.45038771 4.84166786 -1.59972161 7.49668287 -5 11 C-5.66 11 -6.32 11 -7 11 C-5.94230769 0 -5.94230769 0 0 0 Z " fill="#E5632B" transform="translate(239,93)"/>
<path d="M0 0 C2.86724686 0.57344937 3.8614515 0.8614515 6 3 C5.34 4.98 4.68 6.96 4 9 C1.0625 7.6875 1.0625 7.6875 -2 6 C-2.33 5.01 -2.66 4.02 -3 3 C-2.34 3 -1.68 3 -1 3 C-0.67 2.01 -0.34 1.02 0 0 Z " fill="#2F2B2C" transform="translate(115,282)"/>
<path d="M0 0 C2.64 0.99 5.28 1.98 8 3 C7.67 4.65 7.34 6.3 7 8 C4.28324005 7.63287028 2.38936287 7.27255401 0.125 5.6875 C-0.24625 5.130625 -0.6175 4.57375 -1 4 C-0.67 2.68 -0.34 1.36 0 0 Z " fill="#242021" transform="translate(108,278)"/>
<path d="M0 0 C0.66 0 1.32 0 2 0 C2 4.29 2 8.58 2 13 C2.66 13.33 3.32 13.66 4 14 C3.01 14 2.02 14 1 14 C1 11.03 1 8.06 1 5 C-0.29633621 6.06645115 -0.29633621 6.06645115 -0.0625 8.5625 C-0.041875 9.366875 -0.02125 10.17125 0 11 C-1.32 11 -2.64 11 -4 11 C-3.52269162 9.5410574 -3.04308958 8.08286504 -2.5625 6.625 C-2.29566406 5.81289062 -2.02882812 5.00078125 -1.75390625 4.1640625 C-1 2 -1 2 0 0 Z " fill="#F07B46" transform="translate(222,94)"/>
<path d="M0 0 C0.33 0 0.66 0 1 0 C1.21767642 8.96101244 1.04404545 17.2215548 -1 26 C-1.66 26 -2.32 26 -3 26 C-2.85923685 24.0412957 -2.7122324 22.08303907 -2.5625 20.125 C-2.48128906 19.03445312 -2.40007812 17.94390625 -2.31640625 16.8203125 C-2 14 -2 14 -1 12 C-0.77141886 9.9625237 -0.58975722 7.91959697 -0.4375 5.875 C-0.35371094 4.77929688 -0.26992188 3.68359375 -0.18359375 2.5546875 C-0.12300781 1.71164063 -0.06242187 0.86859375 0 0 Z " fill="#FEECD9" transform="translate(268,200)"/>
<path d="M0 0 C0.66 0.33 1.32 0.66 2 1 C0.63312778 4.98671063 -1.15195093 7.88494633 -4 11 C-4.66 11 -5.32 11 -6 11 C-5.43518386 7.04628701 -4.28003407 4.28324906 -2 1 C-1.34 0.67 -0.68 0.34 0 0 Z " fill="#E26229" transform="translate(154,92)"/>
<path d="M0 0 C-0.99 0.495 -0.99 0.495 -2 1 C-2 6.94 -2 12.88 -2 19 C-2.33 19 -2.66 19 -3 19 C-3 13.39 -3 7.78 -3 2 C-4.98 2.99 -4.98 2.99 -7 4 C-7.99 4 -8.98 4 -10 4 C-9 1 -9 1 -6.6875 -0.25 C-3.90126985 -1.0275526 -2.66561622 -0.98726527 0 0 Z " fill="#F5B68F" transform="translate(183,88)"/>
<path d="M0 0 C0.66 0 1.32 0 2 0 C2.33 5.61 2.66 11.22 3 17 C2.01 17 1.02 17 0 17 C0 11.39 0 5.78 0 0 Z " fill="#FEE2C0" transform="translate(99,90)"/>
<path d="M0 0 C0.99 0 1.98 0 3 0 C3 5.61 3 11.22 3 17 C2.67 17 2.34 17 2 17 C2 14.36 2 11.72 2 9 C0.35 9 -1.3 9 -3 9 C-2.01 8.67 -1.02 8.34 0 8 C0 5.36 0 2.72 0 0 Z " fill="#FECDAB" transform="translate(240,81)"/>
<path d="M0 0 C1.97883159 0.26712469 3.9367135 0.67971283 5.88671875 1.109375 C5.55671875 2.099375 5.22671875 3.089375 4.88671875 4.109375 C4.10296875 3.944375 3.31921875 3.779375 2.51171875 3.609375 C0.00463836 3.0470043 0.00463836 3.0470043 -2.11328125 3.109375 C-2.77328125 4.759375 -3.43328125 6.409375 -4.11328125 8.109375 C-4.44328125 7.449375 -4.77328125 6.789375 -5.11328125 6.109375 C-5.77328125 5.779375 -6.43328125 5.449375 -7.11328125 5.109375 C-3.25704446 0.16857162 -3.25704446 0.16857162 0 0 Z " fill="#FDD7B8" transform="translate(154.11328125,89.890625)"/>
<path d="M0 0 C0.99 1.32 1.98 2.64 3 4 C3.66 3.01 4.32 2.02 5 1 C6.32 1.66 7.64 2.32 9 3 C8.07213211 4.00894372 7.13231567 5.00690907 6.1875 6 C5.40439453 6.8353125 5.40439453 6.8353125 4.60546875 7.6875 C3 9 3 9 0 9 C0 6.03 0 3.06 0 0 Z " fill="#F0601A" transform="translate(70,168)"/>
<path d="M0 0 C-0.86882812 0.04898438 -1.73765625 0.09796875 -2.6328125 0.1484375 C-3.78523438 0.22320312 -4.93765625 0.29796875 -6.125 0.375 C-7.83042969 0.47941406 -7.83042969 0.47941406 -9.5703125 0.5859375 C-13.03017012 0.88751386 -13.03017012 0.88751386 -16.3046875 2.1015625 C-19 3 -19 3 -21 2 C-14.35402593 -1.4740319 -6.86606812 -4.57737875 0 0 Z " fill="#2E0600" transform="translate(243,169)"/>
<path d="M0 0 C0.33 0 0.66 0 1 0 C1 4.29 1 8.58 1 13 C0.34 13 -0.32 13 -1 13 C-1.33 12.01 -1.66 11.02 -2 10 C-2.66 10 -3.32 10 -4 10 C-3.52449439 8.51965236 -3.04448784 7.04074979 -2.5625 5.5625 C-2.29566406 4.73878906 -2.02882812 3.91507812 -1.75390625 3.06640625 C-1 1 -1 1 0 0 Z " fill="#E95E20" transform="translate(138,95)"/>
<path d="M0 0 C0.33 0.66 0.66 1.32 1 2 C1.99 2 2.98 2 4 2 C3.67 2.99 3.34 3.98 3 5 C3 4.34 3 3.68 3 3 C2.01 3 1.02 3 0 3 C-0.268125 3.53625 -0.53625 4.0725 -0.8125 4.625 C-2.20833333 7.41666667 -3.60416667 10.20833333 -5 13 C-5.33 13 -5.66 13 -6 13 C-6.46557346 9.81858133 -6.50963377 7.74656877 -4.6640625 5.04296875 C-3.15741976 3.3064392 -1.62063536 1.630282 0 0 Z " fill="#FDDCC1" transform="translate(236,90)"/>
<path d="M0 0 C0.33 0 0.66 0 1 0 C1.47759875 6.84558208 0.06076475 13.47739598 -2 20 C-2.66 20.33 -3.32 20.66 -4 21 C-4 19.35 -4 17.7 -4 16 C-3.34 16 -2.68 16 -2 16 C-2.02320313 15.34773437 -2.04640625 14.69546875 -2.0703125 14.0234375 C-2.17583753 8.91301097 -2.01926302 4.79574967 0 0 Z " fill="#260400" transform="translate(263,199)"/>
<path d="M0 0 C2.475 0.495 2.475 0.495 5 1 C4.67 3.97 4.34 6.94 4 10 C2.68 10.33 1.36 10.66 0 11 C0 7.37 0 3.74 0 0 Z " fill="#EF6729" transform="translate(142,96)"/>
<path d="M0 0 C1 3 1 3 0.37915039 4.80932617 C0.03875732 5.46392822 -0.30163574 6.11853027 -0.65234375 6.79296875 C-1.01650391 7.50517578 -1.38066406 8.21738281 -1.75585938 8.95117188 C-2.14580078 9.68916016 -2.53574219 10.42714844 -2.9375 11.1875 C-3.51661133 12.31188477 -3.51661133 12.31188477 -4.10742188 13.45898438 C-5.06271757 15.31060689 -6.03021577 17.15592452 -7 19 C-7.60546875 17.16796875 -7.60546875 17.16796875 -8 15 C-7.10336977 13.57203334 -6.19244963 12.14978365 -5.19140625 10.79296875 C-2.97002362 7.44996997 -1.54278109 3.69282707 0 0 Z " fill="#E0632D" transform="translate(260,237)"/>
<path d="M0 0 C0.99 0 1.98 0 3 0 C3 4.95 3 9.9 3 15 C2.34 15 1.68 15 1 15 C1 10.71 1 6.42 1 2 C0.34 1.67 -0.32 1.34 -1 1 C-0.67 0.67 -0.34 0.34 0 0 Z " fill="#FFEDDA" transform="translate(139,92)"/>
<path d="M0 0 C1.98 0 3.96 0 6 0 C6 1.32 6 2.64 6 4 C3 6 3 6 0 6 C0 4.02 0 2.04 0 0 Z " fill="#DF5E25" transform="translate(183,89)"/>
<path d="M0 0 C1.32 0 2.64 0 4 0 C4 1.98 4 3.96 4 6 C3.34 6 2.68 6 2 6 C2 10.29 2 14.58 2 19 C1.67 19 1.34 19 1 19 C0.67 12.73 0.34 6.46 0 0 Z " fill="#F69568" transform="translate(97,84)"/>
<path d="M0 0 C0.33 0.99 0.66 1.98 1 3 C-0.43359375 5.04296875 -0.43359375 5.04296875 -2.4375 7.1875 C-3.09621094 7.90292969 -3.75492188 8.61835938 -4.43359375 9.35546875 C-4.95050781 9.89816406 -5.46742188 10.44085938 -6 11 C-7.31223496 7.06329512 -6.24296256 4.87511856 -5 1 C-4.67 2.32 -4.34 3.64 -4 5 C-2.68 3.35 -1.36 1.7 0 0 Z " fill="#F8E1D1" transform="translate(245,266)"/>
<path d="M0 0 C0.66 0 1.32 0 2 0 C1.34 2.97 0.68 5.94 0 9 C-1.32 9.33 -2.64 9.66 -4 10 C-4.4025937 6.47730515 -4.13372795 5.20059192 -2.125 2.1875 C-1.42375 1.465625 -0.7225 0.74375 0 0 Z " fill="#FEE2C9" transform="translate(250,96)"/>
<path d="M0 0 C2.63177237 2.63177237 2.47925475 4.27180227 2.8125 7.9375 C2.97685547 9.52884766 2.97685547 9.52884766 3.14453125 11.15234375 C3 14 3 14 1.51171875 15.87890625 C1.01285156 16.24886719 0.51398438 16.61882812 0 17 C-0.99 16.67 -1.98 16.34 -3 16 C-2.2575 15.1028125 -2.2575 15.1028125 -1.5 14.1875 C0.69805475 9.51663366 0.24023041 5.0804284 0 0 Z " fill="#E95C1F" transform="translate(161,98)"/>
<path d="M0 0 C0.33 0.66 0.66 1.32 1 2 C1.66 2.33 2.32 2.66 3 3 C2.67 3.33 2.34 3.66 2 4 C1.76807135 5.51469448 1.58784762 7.03754562 1.4375 8.5625 C1.35371094 9.38878906 1.26992187 10.21507813 1.18359375 11.06640625 C1.12300781 11.70449219 1.06242188 12.34257813 1 13 C0.34 13 -0.32 13 -1 13 C-1.02686553 11.02090602 -1.04633375 9.04171029 -1.0625 7.0625 C-1.07410156 5.96035156 -1.08570313 4.85820313 -1.09765625 3.72265625 C-1 1 -1 1 0 0 Z " fill="#FEEBD0" transform="translate(182,94)"/>
<path d="M0 0 C0.99 0 1.98 0 3 0 C4.25433458 3.76300374 4.10695422 7.27210909 4.0625 11.1875 C4.05798828 11.93708984 4.05347656 12.68667969 4.04882812 13.45898438 C4.03706354 15.30602383 4.01912865 17.15302213 4 19 C3.67 19 3.34 19 3 19 C2.67 14.05 2.34 9.1 2 4 C1.01 3.67 0.02 3.34 -1 3 C-0.67 2.01 -0.34 1.02 0 0 Z " fill="#F0652B" transform="translate(223,88)"/>
<path d="M0 0 C0.33 1.32 0.66 2.64 1 4 C0.34 4 -0.32 4 -1 4 C-1 4.99 -1 5.98 -1 7 C-1.66 7 -2.32 7 -3 7 C-3.0825 7.61875 -3.165 8.2375 -3.25 8.875 C-4 11 -4 11 -6.046875 12.1328125 C-6.69140625 12.41898437 -7.3359375 12.70515625 -8 13 C-6.85605098 11.01974361 -5.70978896 9.04082322 -4.5625 7.0625 C-3.92441406 5.96035156 -3.28632813 4.85820312 -2.62890625 3.72265625 C-1 1 -1 1 0 0 Z " fill="#FDDCC7" transform="translate(254,253)"/>
<path d="M0 0 C2.08940868 3.13411302 2.27364412 3.97450472 2.25 7.5625 C2.25515625 8.34753906 2.2603125 9.13257812 2.265625 9.94140625 C2 12 2 12 0 14 C0 10.7 0 7.4 0 4 C-0.66 3.67 -1.32 3.34 -2 3 C-1.34 2.01 -0.68 1.02 0 0 Z " fill="#E26B36" transform="translate(157,97)"/>
<path d="M0 0 C0.66 0.33 1.32 0.66 2 1 C2.66 0.67 3.32 0.34 4 0 C6.3329866 -0.04022391 8.66706666 -0.04320247 11 0 C11 0.33 11 0.66 11 1 C10.40832031 1.18175781 9.81664063 1.36351563 9.20703125 1.55078125 C4.787492 2.95667057 0.87459875 4.37527181 -3 7 C-3 6.01 -3 5.02 -3 4 C-2.34 4 -1.68 4 -1 4 C-0.67 2.68 -0.34 1.36 0 0 Z " fill="#FBDECA" transform="translate(77,68)"/>
<path d="M0 0 C0.99 0 1.98 0 3 0 C3 2.97 3 5.94 3 9 C2.01 9.495 2.01 9.495 1 10 C-0.1577506 6.52674819 -0.06866652 3.63932552 0 0 Z " fill="#FFE0C4" transform="translate(130,91)"/>
<path d="M0 0 C0.66 0.66 1.32 1.32 2 2 C-2.95 2.66 -7.9 3.32 -13 4 C-8.98027113 -0.01972887 -5.65638726 -0.41899165 0 0 Z " fill="#D55616" transform="translate(238,165)"/>
<path d="M0 0 C0.66 0 1.32 0 2 0 C2 2.97 2 5.94 2 9 C0.68 9 -0.64 9 -2 9 C-1.125 2.25 -1.125 2.25 0 0 Z " fill="#FFE3CD" transform="translate(147,96)"/>
<path d="M0 0 C0.99 0 1.98 0 3 0 C3 3.63 3 7.26 3 11 C2.34 11 1.68 11 1 11 C1 8.03 1 5.06 1 2 C0.34 1.67 -0.32 1.34 -1 1 C-0.67 0.67 -0.34 0.34 0 0 Z " fill="#EB753D" transform="translate(75,89)"/>
<path d="M0 0 C1.64574566 -0.02688151 3.29161413 -0.04634123 4.9375 -0.0625 C5.85402344 -0.07410156 6.77054688 -0.08570312 7.71484375 -0.09765625 C10 0 10 0 11 1 C11.04080783 2.99958364 11.04254356 5.00045254 11 7 C10.67 7 10.34 7 10 7 C10 5.35 10 3.7 10 2 C8.1128125 1.938125 8.1128125 1.938125 6.1875 1.875 C5.47980469 1.85179688 4.77210938 1.82859375 4.04296875 1.8046875 C1.68640281 1.86745538 1.68640281 1.86745538 -1 4 C-0.67 2.68 -0.34 1.36 0 0 Z " fill="#E55C1B" transform="translate(150,89)"/>
<path d="M0 0 C0.33 0.66 0.66 1.32 1 2 C0.67 2.66 0.34 3.32 0 4 C1.32 3.67 2.64 3.34 4 3 C3.25 4.9375 3.25 4.9375 2 7 C-0.125 7.75 -0.125 7.75 -2 8 C-2.125 5.125 -2.125 5.125 -2 2 C-1.34 1.34 -0.68 0.68 0 0 Z " fill="#F25915" transform="translate(74,75)"/>
<path d="M0 0 C2.4375 0.375 2.4375 0.375 5 1 C5.33 1.66 5.66 2.32 6 3 C8.01669827 4.13350534 8.01669827 4.13350534 10 5 C9.67 5.66 9.34 6.32 9 7 C7.35 6.67 5.7 6.34 4 6 C3.896875 5.38125 3.79375 4.7625 3.6875 4.125 C3.12474627 1.63473516 3.12474627 1.63473516 0 0 Z " fill="#EE550F" transform="translate(138,90)"/>
<path d="M0 0 C0.99 0.33 1.98 0.66 3 1 C2.04270084 2.12588014 1.08412105 3.2506715 0.125 4.375 C-0.40867188 5.00148438 -0.94234375 5.62796875 -1.4921875 6.2734375 C-2.61432007 7.55836651 -3.79371975 8.79371975 -5 10 C-4.67 7.69 -4.34 5.38 -4 3 C-2.68 2.67 -1.36 2.34 0 2 C0 1.34 0 0.68 0 0 Z " fill="#EB5C1D" transform="translate(234,89)"/>
<path d="M0 0 C0.66 0 1.32 0 2 0 C0.98362463 5.08187686 -1.13809397 9.70714096 -4 14 C-3.67 11.03 -3.34 8.06 -3 5 C-2.34 5 -1.68 5 -1 5 C-0.67 3.35 -0.34 1.7 0 0 Z " fill="#FDEBE1" transform="translate(72,73)"/>
<path d="M0 0 C1.32 0 2.64 0 4 0 C4.66 3.3 5.32 6.6 6 10 C4.68 10 3.36 10 2 10 C2.226875 8.906875 2.45375 7.81375 2.6875 6.6875 C3.40146383 3.09468727 3.40146383 3.09468727 1.5625 1.0625 C1.046875 0.711875 0.53125 0.36125 0 0 Z " fill="#E45B1D" transform="translate(88,83)"/>
<path d="M0 0 C-0.57344937 2.86724686 -0.8614515 3.8614515 -3 6 C-3 5.01 -3 4.02 -3 3 C-5.31 3 -7.62 3 -10 3 C-6.1865669 0.45771127 -4.5252563 -0.11908569 0 0 Z " fill="#E26C36" transform="translate(92,95)"/>
<path d="M0 0 C1.42944945 2.35438733 2.08661261 3.48032433 1.625 6.25 C1.41875 6.8275 1.2125 7.405 1 8 C0.34 8 -0.32 8 -1 8 C-1.66 8.66 -2.32 9.32 -3 10 C-2.39009109 6.44219804 -1.4216319 3.3171411 0 0 Z " fill="#F6F6E6" transform="translate(237,277)"/>
<path d="M0 0 C-1.28716647 1.00578589 -2.57988658 2.00446798 -3.875 3 C-4.95394531 3.8353125 -4.95394531 3.8353125 -6.0546875 4.6875 C-8 6 -8 6 -10 6 C-10 5.01 -10 4.02 -10 3 C-9.01 2.67 -8.02 2.34 -7 2 C-6.67 1.34 -6.34 0.68 -6 0 C-3 -1 -3 -1 0 0 Z " fill="#D55517" transform="translate(225,170)"/>
<path d="M0 0 C0.66 0.33 1.32 0.66 2 1 C0.92598892 3.91517292 0.22189824 5.77810176 -2 8 C-2 7.01 -2 6.02 -2 5 C-2.66 4.67 -3.32 4.34 -4 4 C-2.68 2.68 -1.36 1.36 0 0 Z " fill="#E56831" transform="translate(205,92)"/>
<path d="M0 0 C1.485 0.99 1.485 0.99 3 2 C3.1875 5.125 3.1875 5.125 3 8 C2.34 8 1.68 8 1 8 C1 7.01 1 6.02 1 5 C0.34 5 -0.32 5 -1 5 C-0.67 3.35 -0.34 1.7 0 0 Z " fill="#FEEFDE" transform="translate(157,92)"/>
<path d="M0 0 C0.99 0.33 1.98 0.66 3 1 C2.19185349 2.33597652 1.37836819 3.668725 0.5625 5 C0.11003906 5.7425 -0.34242188 6.485 -0.80859375 7.25 C-1.20175781 7.8275 -1.59492188 8.405 -2 9 C-2.33 9 -2.66 9 -3 9 C-3 7.35 -3 5.7 -3 4 C-2.01 4 -1.02 4 0 4 C0 2.68 0 1.36 0 0 Z " fill="#E85C23" transform="translate(249,256)"/>
<path d="M0 0 C0.93423645 3.01031744 1.04449911 3.86650268 0 7 C1.98 7.495 1.98 7.495 4 8 C2.02 8.99 2.02 8.99 0 10 C-1 9 -1 9 -1.1328125 7.1875 C-1.13023438 6.465625 -1.12765625 5.74375 -1.125 5 C-1.12757812 4.278125 -1.13015625 3.55625 -1.1328125 2.8125 C-1 1 -1 1 0 0 Z " fill="#E9642C" transform="translate(71,79)"/>
<path d="M0 0 C0.33 0 0.66 0 1 0 C2.10228696 4.40914783 2.07654536 8.48382401 2 13 C1.67 13 1.34 13 1 13 C0.855625 12.2575 0.71125 11.515 0.5625 10.75 C0.0636926 8.09581805 0.0636926 8.09581805 -0.625 5.9375 C-1.06506291 3.66384163 -0.70205558 2.18417292 0 0 Z " fill="#FBC6A6" transform="translate(160,96)"/>
<path d="M0 0 C1.32 0.33 2.64 0.66 4 1 C3.67 1.99 3.34 2.98 3 4 C1.02 4 -0.96 4 -3 4 C-2.01 2.68 -1.02 1.36 0 0 Z " fill="#F95203" transform="translate(86,97)"/>
<path d="M0 0 C1.32 0 2.64 0 4 0 C2.87548273 2.9719385 1.77706209 5.33440687 0 8 C0 5.36 0 2.72 0 0 Z " fill="#D7612A" transform="translate(217,92)"/>
<path d="M0 0 C0.66 0.33 1.32 0.66 2 1 C2.625 3.5625 2.625 3.5625 3 6 C2.01 6 1.02 6 0 6 C0 5.34 0 4.68 0 4 C-0.99 3.67 -1.98 3.34 -3 3 C-2.01 2.67 -1.02 2.34 0 2 C0 1.34 0 0.68 0 0 Z " fill="#FCF7F0" transform="translate(262,70)"/>
<path d="M0 0 C0.33 0.99 0.66 1.98 1 3 C-0.65 4.32 -2.3 5.64 -4 7 C-4.66 6.67 -5.32 6.34 -6 6 C-4.02 4.02 -2.04 2.04 0 0 Z " fill="#FFF7E6" transform="translate(81,168)"/>
<path d="M0 0 C1.32 0 2.64 0 4 0 C3.6875 1.9375 3.6875 1.9375 3 4 C2.01 4.33 1.02 4.66 0 5 C0 3.35 0 1.7 0 0 Z " fill="#E85B1E" transform="translate(232,99)"/>
<path d="M0 0 C4.21912747 0.4794463 6.79663178 1.16625119 10 4 C3.47692308 3.38461538 3.47692308 3.38461538 1.0625 1.4375 C0.711875 0.963125 0.36125 0.48875 0 0 Z " fill="#E16230" transform="translate(249,69)"/>
</svg>
